# AST/ASF file generated using VICON BodyLanguage
# -----------------------------------------------
:version 1.10
:name VICON
:units
  mass 1.0
  length 0.45
  angle deg
:documentation
   .ast/.asf automatically generated from VICON data using
   VICON BodyBuilder and BodyLanguage model FoxedUp or BRILLIANT.MOD
:root
   order TX TY TZ RX RY RZ
   axis XYZ
   position 0 0 0  
   orientation 0 0 0 
:bonedata
  begin
     id 1 
     name lhipjoint
     direction 0.660183 -0.676772 0.325788 
     length 2.75133 
     axis 0 0 0  XYZ
  end
  begin
     id 2 
     name lfemur
     direction 0.34202 -0.939693 0  
     length 7.70317  
     axis 0 0 20  XYZ
    dof rx ry rz
    limits (-160.0 20.0)
           (-70.0 70.0)
           (-60.0 70.0)
  end
  begin
     id 3 
     name ltibia
     direction 0.342105 -0.939662 0   
     length 7.18701   
     axis 0 0 20   XYZ
    dof rx
    limits (-10.0 170.0)
  end
  begin
     id 4 
     name lfoot
     direction 0.14163 -0.389126 0.910232   
     length 2.41719   
     axis -90 7.62852e-016 20   XYZ
    dof rx rz
    limits (-45.0 90.0)
           (-70.0 20.0)
  end
  begin
     id 5 
     name ltoes
     direction 1.53533e-011 -4.21926e-011 1   
     length 1.18611   
     axis -90 7.62852e-016 20   XYZ
    dof rx
    limits (-90.0 20.0)
  end
  begin
     id 6 
     name rhipjoint
     direction -0.6658 -0.67229 0.323631   
     length 2.76968  
     axis 0 0 0  XYZ 
  end
  begin
     id 7 
     name rfemur
     direction -0.34202 -0.939693 0   
     length 7.92547   
     axis 0 0 -20   XYZ
    dof rx ry rz
    limits (-160.0 20.0)
           (-70.0 70.0)
           (-70.0 60.0)
  end
  begin
     id 8 
     name rtibia
     direction -0.342022 -0.939692 0   
     length 7.22641   
     axis 0 0 -20   XYZ
    dof rx
    limits (-10.0 170.0)
 end
 begin
     id 9 
     name rfoot
     direction -0.105675 -0.29034 0.951071   
     length 2.48149  
     axis -90 -7.62852e-016 -20   XYZ
    dof rx rz
    limits (-45.0 90.0)
           (-20.0 70.0)
  end
  begin
     id 10 
     name rtoes
     direction -1.5349e-011 -4.21859e-011 1   
     length 1.23343   
     axis -90 -7.62852e-016 -20   XYZ
    dof rx
    limits (-90.0 20.0)
  end
  begin
     id 11 
     name lowerback
     direction 0.0104173 0.993624 -0.112266   
     length 2.00527   
     axis 0 0 0   XYZ
    dof rx ry rz
    limits (-20.0 45.0)
           (-30.0 30.0)
           (-30.0 30.0)
  end
  begin
     id 12 
     name upperback
     direction 0.00733149 0.999856 -0.0152913   
     length 2.01385   
     axis 0 0 0   XYZ
    dof rx ry rz
    limits (-20.0 45.0)
           (-30.0 30.0)
           (-30.0 30.0)
  end
  begin
     id 13 
     name thorax
     direction 0.0026304 0.999318 0.036841   
     length 2.03734   
     axis 0 0 0   XYZ
    dof rx ry rz
    limits (-20.0 45.0)
           (-30.0 30.0)
           (-30.0 30.0)
  end
  begin
     id 14 
     name lowerneck
     direction 0.0293154 0.998757 0.0403082   
     length 1.65303   
     axis 0 0 0   XYZ
    dof rx ry rz
    limits (-20.0 45.0)
           (-30.0 30.0)
           (-30.0 30.0)
  end
  begin
     id 15 
     name upperneck
     direction -0.0376619 0.998184 -0.0470083   
     length 1.60926   
     axis 0 0 0   XYZ
    dof rx ry rz
    limits (-20.0 45.0)
           (-30.0 30.0)
           (-30.0 30.0)
  end
  begin
     id 16
     name head
     direction -0.0170133 0.999635 -0.0209778  
     length 1.73625  
     axis 0 0 0   XYZ
    dof rx ry rz
    limits (-20.0 45.0)
           (-30.0 30.0)
           (-30.0 30.0)
  end
  begin
     id 17 
     name lclavicle
     direction 0.919857 0.39181 -0.0186333  
     length 3.75313  
     axis 0 0 0   XYZ
    dof ry rz
    limits (-20.0 10.0)
           (0.0 20.0)
  end
  begin
     id 18 
     name lhumerus
     direction 1 -4.48988e-011 1.44029e-027   
     length 5.49313   
     axis 180 -30 -90   XYZ
    dof rx ry rz
    limits (-60.0 90.0)
           (-90.0 90.0)
           (-90.0 90.0)
  end
  begin
     id 19
     name lradius
     direction 1 -4.48924e-011 7.46281e-027   
     length 3.29037   
     axis 180 -30 -90   XYZ
    dof rx
    limits (-10.0 170.0)
  end
  begin
     id 20
     name lwrist
     direction 1 -4.48955e-011 2.19879e-026   
     length 1.64519   
     axis -1.34358e-014 90 90   XYZ
    dof ry
    limits (-180.0 0.0)
 end
  begin
     id 21 
     name lhand
     direction 1 -4.48978e-011 4.39747e-026   
     length 0.729656   
     axis -2.80598e-014 90 90   XYZ
    dof rx rz
    limits (-90.0 90.0)
           (-45.0 45.0)
  end
  begin
     id 22 
     name lfingers
     direction 1 -4.49071e-011 8.79411e-026   
     length 0.588268   
     axis -5.61193e-014 90 90   XYZ
    dof rx
    limits (0.0 90.0)
  end
  begin
     id 23
     name lthumb
     direction 0.707107 -6.34817e-011 0.707107   
     length 0.844638   
     axis -90 45 -9.86923e-015   XYZ
    dof rx rz
    limits (-45.0 45.0)
           (-45.0 45.0)
  end
  begin
     id 24 
     name rclavicle
     direction -0.919898 0.388279 0.0550233   
     length 3.7171  
     axis 0 0 0   XYZ 
    dof ry rz
    limits (-10.0 20.0)
           (-20.0 0.0)
  end
  begin
     id 25 
     name rhumerus
     direction -1 -4.48968e-011 9.98372e-028  
     length 5.23684   
     axis 180 30 90   XYZ
    dof rx ry rz
    limits (-90.0 60.0)
           (-90.0 90.0)
           (-90.0 90.0)
  end
  begin
     id 26 
     name rradius
     direction -1 -4.48956e-011 1.01023e-026   
     length 3.38251   
     axis 180 30 90   XYZ
    dof rx
    limits (-10.0 170.0)
  end
  begin
     id 27 
     name rwrist
     direction -1 -4.4892e-011 2.19886e-026   
     length 1.69126   
     axis -1.34358e-014 -90 -90   XYZ
    dof ry
    limits (-180.0 0.0)
  end
  begin
     id 28
     name rhand
     direction -1 -4.49024e-011 4.39727e-026   
     length 0.691454   
     axis -2.80598e-014 -90 -90   XYZ
    dof rx rz
    limits (-90.0 90.0)
           (-45.0 45.0)
  end
  begin
     id 29
     name rfingers
     direction -1 -4.49097e-011 8.79388e-026   
     length 0.557468   
     axis -5.61193e-014 -90 -90   XYZ
    dof rx
    limits (0.0 90.0)
  end
  begin
     id 30
     name rthumb
     direction -0.707107 -6.34938e-011 0.707107   
     length 0.800416   
     axis -90 -45 9.86923e-015   XYZ
    dof rx rz
    limits (-45.0 45.0)
           (-45.0 45.0)
  end
:hierarchy
  begin
    root lhipjoint rhipjoint lowerback
    lhipjoint lfemur
    lfemur ltibia
    ltibia lfoot
    lfoot ltoes
    rhipjoint rfemur
    rfemur rtibia
    rtibia rfoot
    rfoot rtoes
    lowerback upperback
    upperback thorax
    thorax lowerneck lclavicle rclavicle
    lowerneck upperneck
    upperneck head
    lclavicle lhumerus
    lhumerus lradius
    lradius lwrist
    lwrist lhand lthumb
    lhand lfingers
    rclavicle rhumerus
    rhumerus rradius
    rradius rwrist
    rwrist rhand rthumb
    rhand rfingers
  end

#!OML:ASF H:\BabyWalks\Project 1\Capture day 1\Session 1\baby.ASF
:FULLY-SPECIFIED
:DEGREES
186
root -34.3732 17.7616 -4.33647 -17.2534 75.1505 -26.778
lowerback 15.0859 1.82632 -1.42173
upperback 5.92784 2.47771 0.946522
thorax -2.27781 1.3068 1.37374
lowerneck -0.161604 2.51023 3.32985
upperneck 5.97679 3.45284 -2.45486
head 2.01279 1.75389 -1.27833
rclavicle 7.95139e-015 -1.07344e-014
rhumerus -39.4489 14.3759 -84.4671
rradius 44.8054
rwrist 1.1675
rhand -8.34437 -15.7065
rfingers 7.12502
rthumb 17.5775 -44.9319
lclavicle 7.95139e-015 -1.07344e-014
lhumerus -38.308 3.39088 78.3243
lradius 50.2409
lwrist 2.04959
lhand 1.00937 12.1676
lfingers 7.12502
lthumb 26.5568 40.3259
rfemur 7.2989 -2.29802 24.356
rtibia 11.6005
rfoot -12.8935 -16.1001
rtoes -16.0762
lfemur -21.8879 2.76345 -14.4007
ltibia 34.9317
lfoot -21.1793 7.72126
ltoes -4.7166
187
root -34.2994 17.7755 -4.35891 -17.2545 74.9557 -26.909
lowerback 15.1615 1.87119 -1.46331
upperback 5.88248 2.52708 0.938483
thorax -2.36877 1.3307 1.37692
lowerneck -0.0538201 2.5324 3.38317
upperneck 5.76309 3.47869 -2.43755
head 1.92579 1.76761 -1.2829
rclavicle 3.29983e-014 1.27222e-014
rhumerus -39.4983 14.2837 -84.4227
rradius 44.8835
rwrist 1.05455
rhand -8.34904 -15.6621
rfingers 7.12502
rthumb 17.573 -44.8879
lclavicle 3.29983e-014 1.27222e-014
lhumerus -38.3574 3.23319 78.2864
lradius 50.5592
lwrist 2.213
lhand 0.979023 12.0966
lfingers 7.12502
lthumb 26.5278 40.2593
rfemur 6.14415 -2.86218 24.0828
rtibia 13.9238
rfoot -12.9258 -15.0384
rtoes -16.2146
lfemur -21.5442 2.74309 -14.4183
ltibia 34.5722
lfoot -21.2665 7.95557
ltoes -4.73902
188
root -34.2261 17.7892 -4.38109 -17.2133 74.769 -27.0033
lowerback 15.148 1.89904 -1.66983
upperback 5.90105 2.53912 1.05228
thorax -2.35543 1.33338 1.61115
lowerneck 0.00176486 2.59705 3.31337
upperneck 5.50652 3.56444 -2.50471
head 1.8356 1.80604 -1.29165
rclavicle -1.59028e-015 -7.15625e-015
rhumerus -39.428 14.4118 -84.2245
rradius 44.9791
rwrist 0.872062
rhand -8.34893 -15.6211
rfingers 7.12502
rthumb 17.5731 -44.8469
lclavicle -1.59028e-015 -7.15625e-015
lhumerus -38.3759 3.28671 78.3831
lradius 50.8897
lwrist 2.34319
lhand 0.944091 12.0005
lfingers 7.12502
lthumb 26.4943 40.1681
rfemur 5.01819 -3.39895 23.8143
rtibia 16.1439
rfoot -12.8464 -14.0387
rtoes -16.1346
lfemur -21.205 2.73499 -14.449
ltibia 34.1989
lfoot -21.3482 8.1664
ltoes -4.72971
189
root -34.1532 17.8027 -4.40284 -17.1392 74.5973 -27.0728
lowerback 15.1789 1.88443 -1.85985
upperback 5.8969 2.49586 1.15359
thorax -2.38588 1.30913 1.83078
lowerneck 0.00983782 2.69791 3.20308
upperneck 5.28135 3.69702 -2.55349
head 1.76425 1.86739 -1.2862
rclavicle -4.92986e-014 -1.27222e-014
rhumerus -39.3544 14.6082 -84.0676
rradius 45.0797
rwrist 0.674022
rhand -8.35208 -15.5897
rfingers 7.12502
rthumb 17.57 -44.8157
lclavicle -4.92986e-014 -1.27222e-014
lhumerus -38.4537 3.38144 78.4398
lradius 51.2501
lwrist 2.47815
lhand 0.897376 11.9189
lfingers 7.12502
lthumb 26.4496 40.0934
rfemur 3.90122 -3.90969 23.5561
rtibia 18.2934
rfoot -12.6957 -13.1012
rtoes -15.8597
lfemur -20.8755 2.73684 -14.4919
ltibia 33.8139
lfoot -21.4258 8.34824
ltoes -4.68618
190
root -34.0806 17.816 -4.42396 -17.0277 74.4367 -27.1071
lowerback 15.2108 1.8407 -2.08709
upperback 5.9002 2.41047 1.2805
thorax -2.40867 1.26354 2.10596
lowerneck -0.0288905 2.83077 3.02935
upperneck 5.0641 3.87197 -2.60842
head 1.70366 1.94846 -1.27058
rclavicle -2.46493e-014 -1.35174e-014
rhumerus -39.2345 14.8936 -83.8886
rradius 45.1762
rwrist 0.448386
rhand -8.35805 -15.5564
rfingers 7.12502
rthumb 17.5643 -44.783
lclavicle -2.46493e-014 -1.35174e-014
lhumerus -38.5498 3.55499 78.51
lradius 51.6274
lwrist 2.60339
lhand 0.846842 11.8111
lfingers 7.12502
lthumb 26.4012 39.9928
rfemur 2.79274 -4.39144 23.3077
rtibia 20.3833
rfoot -12.5298 -12.1953
rtoes -15.4789
lfemur -20.5479 2.74829 -14.5475
ltibia 33.4176
lfoot -21.5013 8.50465
ltoes -4.6094
191
root -34.0078 17.8286 -4.44452 -16.8713 74.2899 -27.0943
lowerback 15.2592 1.76835 -2.3212
upperback 5.90108 2.28624 1.40852
thorax -2.43948 1.19885 2.39292
lowerneck -0.115045 2.98695 2.81799
upperneck 4.86954 4.07761 -2.66008
head 1.65846 2.0443 -1.24637
rclavicle -4.05521e-014 -2.46493e-014
rhumerus -39.085 15.2235 -83.7143
rradius 45.2593
rwrist 0.211958
rhand -8.36711 -15.5381
rfingers 7.12502
rthumb 17.5556 -44.7654
lclavicle -4.05521e-014 -2.46493e-014
lhumerus -38.6686 3.76741 78.5685
lradius 52.0161
lwrist 2.72127
lhand 0.780492 11.6981
lfingers 7.12502
lthumb 26.3377 39.8893
rfemur 1.69749 -4.84173 23.0652
rtibia 22.4106
rfoot -12.386 -11.2992
rtoes -15.0784
lfemur -20.2178 2.76761 -14.6209
ltibia 33.0135
lfoot -21.5792 8.63511
ltoes -4.49276
192
root -33.9341 17.8402 -4.46446 -16.6688 74.1475 -27.0259
lowerback 15.341 1.67745 -2.53017
upperback 5.88684 2.13896 1.51283
thorax -2.49909 1.12363 2.64434
lowerneck -0.225399 3.1546 2.6032
upperneck 4.7006 4.29817 -2.69431
head 1.62529 2.14808 -1.21543
rclavicle -3.1408e-014 1.66979e-014
rhumerus -38.9383 15.5351 -83.5727
rradius 45.3303
rwrist -0.0197533
rhand -8.37438 -15.5317
rfingers 7.12502
rthumb 17.5486 -44.7597
lclavicle -3.1408e-014 1.66979e-014
lhumerus -38.817 3.96095 78.5925
lradius 52.4046
lwrist 2.82434
lhand 0.686581 11.5632
lfingers 7.12502
lthumb 26.2478 39.7678
rfemur 0.622924 -5.25769 22.8265
rtibia 24.3667
rfoot -12.3093 -10.366
rtoes -14.7748
lfemur -19.8749 2.79489 -14.7106
ltibia 32.6054
lfoot -21.6654 8.74992
ltoes -4.34674
193
root -33.8593 17.8506 -4.48373 -16.4174 74.0043 -26.8938
lowerback 15.4604 1.57866 -2.6908
upperback 5.8503 1.98454 1.57423
thorax -2.59727 1.04633 2.82406
lowerneck -0.33925 3.31746 2.42251
upperneck 4.56112 4.51206 -2.70787
head 1.60196 2.24986 -1.18377
rclavicle 2.38542e-015 2.22639e-014
rhumerus -38.817 15.7705 -83.4822
rradius 45.3814
rwrist -0.23287
rhand -8.38412 -15.5243
rfingers 7.12502
rthumb 17.5392 -44.7532
lclavicle 2.38542e-015 2.22639e-014
lhumerus -38.9951 4.08288 78.5663
lradius 52.7826
lwrist 2.9051
lhand 0.563177 11.3872
lfingers 7.12502
lthumb 26.1297 39.6093
rfemur -0.423521 -5.63654 22.5884
rtibia 26.2399
rfoot -12.3422 -9.35799
rtoes -14.5888
lfemur -19.5124 2.82925 -14.8174
ltibia 32.1979
lfoot -21.7637 8.85686
ltoes -4.17247
194
root -33.7827 17.8596 -4.5023 -16.1198 73.8583 -26.6958
lowerback 15.6044 1.48508 -2.80596
upperback 5.7959 1.8401 1.59333
thorax -2.72447 0.975296 2.93177
lowerneck -0.4307 3.46299 2.30306
upperneck 4.43778 4.70271 -2.7119
head 1.58043 2.34169 -1.1603
rclavicle 4.77083e-014 0
rhumerus -38.7296 15.8934 -83.4334
rradius 45.4129
rwrist -0.416866
rhand -8.39559 -15.5102
rfingers 7.12502
rthumb 17.5282 -44.74
lclavicle 4.77083e-014 0
lhumerus -39.1889 4.10656 78.5001
lradius 53.143
lwrist 2.97151
lhand 0.427234 11.1672
lfingers 7.12502
lthumb 25.9995 39.4085
rfemur -1.43658 -5.97839 22.3487
rtibia 28.0205
rfoot -12.4772 -8.26542
rtoes -14.627
lfemur -19.124 2.86703 -14.9421
ltibia 31.793
lfoot -21.8741 8.96416
ltoes -3.98685
195
root -33.7046 17.8671 -4.52013 -15.7951 73.7133 -26.449
lowerback 15.7592 1.40199 -2.88895
upperback 5.73165 1.71185 1.58289
thorax -2.86678 0.91318 2.9876
lowerneck -0.484354 3.5859 2.25171
upperneck 4.32113 4.86337 -2.72129
head 1.55566 2.42011 -1.15132
rclavicle -1.03368e-014 9.54166e-015
rhumerus -38.6731 15.9017 -83.4056
rradius 45.4278
rwrist -0.568942
rhand -8.40796 -15.505
rfingers 7.12502
rthumb 17.5163 -44.7358
lclavicle -1.03368e-014 9.54166e-015
lhumerus -39.3839 4.03487 78.4143
lradius 53.4784
lwrist 3.02648
lhand 0.262713 10.9504
lfingers 7.12502
lthumb 25.842 39.2148
rfemur -2.41619 -6.28895 22.1109
rtibia 29.7029
rfoot -12.7147 -7.09099
rtoes -14.8839
lfemur -18.7095 2.89987 -15.0813
ltibia 31.3917
lfoot -21.9936 9.07451
ltoes -3.79617
196
root -33.6245 17.873 -4.53726 -15.4511 73.5608 -26.1567
lowerback 15.9074 1.33384 -2.95602
upperback 5.66997 1.60485 1.55801
thorax -3.00353 0.861876 3.01606
lowerneck -0.496721 3.68563 2.25608
upperneck 4.20439 4.99363 -2.74554
head 1.52502 2.4845 -1.15784
rclavicle -4.01545e-014 -1.27222e-014
rhumerus -38.6444 15.823 -83.3786
rradius 45.4434
rwrist -0.69243
rhand -8.42081 -15.5029
rfingers 7.12502
rthumb 17.5039 -44.7349
lclavicle -4.01545e-014 -1.27222e-014
lhumerus -39.5644 3.89601 78.3275
lradius 53.779
lwrist 3.05853
lhand 0.0846499 10.7143
lfingers 7.12502
lthumb 25.6715 39.0033
rfemur -3.35997 -6.56472 21.8761
rtibia 31.2843
rfoot -13.029 -5.86118
rtoes -15.2874
lfemur -18.26 2.9325 -15.2325
ltibia 30.995
lfoot -22.1246 9.19407
ltoes -3.60228
197
root -33.5434 17.8776 -4.55336 -15.1017 73.4219 -25.8478
lowerback 16.0858 1.27349 -2.95576
upperback 5.57654 1.51336 1.4791
thorax -3.18833 0.819736 2.94604
lowerneck -0.446915 3.75495 2.35606
upperneck 4.10442 5.08278 -2.75325
head 1.49031 2.53071 -1.17725
rclavicle -2.78299e-015 -3.18055e-015
rhumerus -38.6855 15.5935 -83.4125
rradius 45.4472
rwrist -0.766095
rhand -8.44413 -15.4857
rfingers 7.12502
rthumb 17.4815 -44.7197
lclavicle -2.78299e-015 -3.18055e-015
lhumerus -39.756 3.6203 78.1876
lradius 54.05
lwrist 3.09465
lhand -0.0944642 10.4832
lfingers 7.12502
lthumb 25.4999 38.7969
rfemur -4.28686 -6.82144 21.6532
rtibia 32.7642
rfoot -13.4111 -4.62195
rtoes -15.8403
lfemur -17.8011 2.95221 -15.394
ltibia 30.6044
lfoot -22.2581 9.31545
ltoes -3.42925
198
root -33.4613 17.8811 -4.56847 -14.7657 73.2964 -25.5408
lowerback 16.1671 1.22832 -3.05783
upperback 5.54514 1.43487 1.48264
thorax -3.26083 0.78145 3.02126
lowerneck -0.383141 3.8133 2.41934
upperneck 3.96373 5.15994 -2.82868
head 1.44117 2.5695 -1.21263
rclavicle -3.02153e-014 7.15625e-015
rhumerus -38.6482 15.4138 -83.3116
rradius 45.4528
rwrist -0.84429
rhand -8.47167 -15.468
rfingers 7.12502
rthumb 17.455 -44.7043
lclavicle -3.02153e-014 7.15625e-015
lhumerus -39.852 3.42998 78.1607
lradius 54.2761
lwrist 3.1087
lhand -0.26105 10.2554
lfingers 7.12502
lthumb 25.3403 38.5919
rfemur -5.19855 -7.0629 21.4491
rtibia 34.144
rfoot -13.8218 -3.43944
rtoes -16.4211
lfemur -17.3335 2.95443 -15.5595
ltibia 30.2222
lfoot -22.3934 9.44178
ltoes -3.27544
199
root -33.3784 17.8835 -4.58257 -14.4535 73.1853 -25.2508
lowerback 16.2436 1.17359 -3.15953
upperback 5.51909 1.3445 1.49359
thorax -3.32401 0.737273 3.10676
lowerneck -0.320265 3.87149 2.48301
upperneck 3.84206 5.23757 -2.90985
head 1.39867 2.60848 -1.24985
rclavicle -4.21423e-014 7.15625e-015
rhumerus -38.6057 15.2375 -83.2034
rradius 45.4554
rwrist -0.897682
rhand -8.50469 -15.4556
rfingers 7.12502
rthumb 17.4232 -44.6947
lclavicle -4.21423e-014 7.15625e-015
lhumerus -39.9248 3.26337 78.1317
lradius 54.4742
lwrist 3.12628
lhand -0.413709 10.0777
lfingers 7.12502
lthumb 25.1941 38.4348
rfemur -6.10128 -7.28663 21.2712
rtibia 35.4256
rfoot -14.2256 -2.37803
rtoes -16.9424
lfemur -16.8633 2.94012 -15.7245
ltibia 29.8526
lfoot -22.5331 9.56973
ltoes -3.14186
200
root -33.2947 17.885 -4.59549 -14.1703 73.0817 -24.9846
lowerback 16.3181 1.11092 -3.26032
upperback 5.49645 1.24436 1.51258
thorax -3.38152 0.688279 3.20246
lowerneck -0.260496 3.93117 2.53926
upperneck 3.7411 5.31763 -2.98759
head 1.36317 2.64862 -1.28456
rclavicle 3.29983e-014 1.11319e-014
rhumerus -38.5589 15.0685 -83.091
rradius 45.4527
rwrist -0.927899
rhand -8.54261 -15.4338
rfingers 7.12502
rthumb 17.3867 -44.6762
lclavicle 3.29983e-014 1.11319e-014
lhumerus -39.9773 3.12552 78.0966
lradius 54.6481
lwrist 3.15186
lhand -0.536401 9.92779
lfingers 7.12502
lthumb 25.0765 38.3014
rfemur -6.99786 -7.48447 21.1264
rtibia 36.6082
rfoot -14.6242 -1.47488
rtoes -17.3693
lfemur -16.3914 2.91924 -15.8844
ltibia 29.5009
lfoot -22.683 9.69487
ltoes -3.00942
